<svg width="115" height="19" viewBox="0 0 115 19" fill="none" xmlns="http://www.w3.org/2000/svg">
<path d="M4.284 13.096C4.068 13.096 3.888 13.048 3.744 12.952C3.608 12.848 3.496 12.696 3.408 12.496L0.276 5.464C0.188 5.264 0.164 5.088 0.204 4.936C0.244 4.784 0.328 4.664 0.456 4.576C0.584 4.488 0.736 4.444 0.912 4.444C1.144 4.444 1.316 4.496 1.428 4.6C1.548 4.696 1.648 4.844 1.728 5.044L4.572 11.632H4.056L6.888 5.032C6.976 4.84 7.08 4.696 7.2 4.6C7.32 4.496 7.488 4.444 7.704 4.444C7.88 4.444 8.024 4.488 8.136 4.576C8.256 4.664 8.332 4.784 8.364 4.936C8.396 5.088 8.368 5.264 8.28 5.464L5.148 12.496C5.06 12.696 4.948 12.848 4.812 12.952C4.684 13.048 4.508 13.096 4.284 13.096ZM10.2947 13C10.0307 13 9.82669 12.932 9.68269 12.796C9.54669 12.652 9.47869 12.448 9.47869 12.184V5.356C9.47869 5.092 9.54669 4.892 9.68269 4.756C9.82669 4.612 10.0307 4.54 10.2947 4.54H14.5787C14.7787 4.54 14.9307 4.592 15.0347 4.696C15.1467 4.8 15.2027 4.948 15.2027 5.14C15.2027 5.34 15.1467 5.496 15.0347 5.608C14.9307 5.712 14.7787 5.764 14.5787 5.764H10.9547V8.092H14.3147C14.5227 8.092 14.6787 8.144 14.7827 8.248C14.8867 8.352 14.9387 8.504 14.9387 8.704C14.9387 8.904 14.8867 9.056 14.7827 9.16C14.6787 9.264 14.5227 9.316 14.3147 9.316H10.9547V11.776H14.5787C14.7787 11.776 14.9307 11.828 15.0347 11.932C15.1467 12.036 15.2027 12.188 15.2027 12.388C15.2027 12.588 15.1467 12.74 15.0347 12.844C14.9307 12.948 14.7787 13 14.5787 13H10.2947ZM17.4068 13.096C17.1588 13.096 16.9668 13.028 16.8308 12.892C16.7028 12.748 16.6388 12.552 16.6388 12.304V5.32C16.6388 5.064 16.7068 4.872 16.8428 4.744C16.9788 4.608 17.1708 4.54 17.4188 4.54H20.3108C21.2388 4.54 21.9548 4.764 22.4588 5.212C22.9628 5.652 23.2148 6.272 23.2148 7.072C23.2148 7.592 23.0988 8.04 22.8668 8.416C22.6428 8.792 22.3148 9.08 21.8828 9.28C21.4508 9.48 20.9268 9.58 20.3108 9.58L20.4188 9.4H20.8148C21.1428 9.4 21.4268 9.48 21.6668 9.64C21.9148 9.8 22.1308 10.052 22.3148 10.396L23.2148 12.064C23.3108 12.232 23.3548 12.396 23.3468 12.556C23.3388 12.716 23.2788 12.848 23.1668 12.952C23.0548 13.048 22.8908 13.096 22.6748 13.096C22.4588 13.096 22.2828 13.052 22.1468 12.964C22.0108 12.868 21.8908 12.724 21.7868 12.532L20.5748 10.3C20.4308 10.028 20.2588 9.848 20.0588 9.76C19.8668 9.664 19.6188 9.616 19.3148 9.616H18.1748V12.304C18.1748 12.552 18.1108 12.748 17.9828 12.892C17.8548 13.028 17.6628 13.096 17.4068 13.096ZM18.1748 8.476H20.0468C20.5988 8.476 21.0148 8.364 21.2948 8.14C21.5828 7.908 21.7268 7.564 21.7268 7.108C21.7268 6.66 21.5828 6.324 21.2948 6.1C21.0148 5.868 20.5988 5.752 20.0468 5.752H18.1748V8.476ZM28.8432 13.096C28.6112 13.096 28.4312 13.032 28.3032 12.904C28.1832 12.776 28.1232 12.592 28.1232 12.352V5.212C28.1232 4.964 28.1832 4.776 28.3032 4.648C28.4312 4.512 28.5952 4.444 28.7952 4.444C28.9792 4.444 29.1152 4.48 29.2032 4.552C29.2992 4.616 29.4112 4.728 29.5392 4.888L34.1352 10.852H33.8232V5.176C33.8232 4.944 33.8832 4.764 34.0032 4.636C34.1312 4.508 34.3112 4.444 34.5432 4.444C34.7752 4.444 34.9512 4.508 35.0712 4.636C35.1912 4.764 35.2512 4.944 35.2512 5.176V12.376C35.2512 12.6 35.1952 12.776 35.0832 12.904C34.9712 13.032 34.8192 13.096 34.6272 13.096C34.4432 13.096 34.2952 13.06 34.1832 12.988C34.0792 12.916 33.9632 12.8 33.8352 12.64L29.2512 6.676H29.5512V12.352C29.5512 12.592 29.4912 12.776 29.3712 12.904C29.2512 13.032 29.0752 13.096 28.8432 13.096ZM40.8918 13.12C40.0758 13.12 39.3598 12.94 38.7438 12.58C38.1358 12.22 37.6638 11.716 37.3278 11.068C36.9918 10.412 36.8238 9.644 36.8238 8.764C36.8238 8.1 36.9198 7.504 37.1118 6.976C37.3038 6.44 37.5758 5.984 37.9278 5.608C38.2878 5.224 38.7158 4.932 39.2118 4.732C39.7158 4.524 40.2758 4.42 40.8918 4.42C41.7158 4.42 42.4318 4.6 43.0398 4.96C43.6478 5.312 44.1198 5.812 44.4558 6.46C44.7918 7.108 44.9598 7.872 44.9598 8.752C44.9598 9.416 44.8638 10.016 44.6718 10.552C44.4798 11.088 44.2038 11.548 43.8438 11.932C43.4918 12.316 43.0638 12.612 42.5598 12.82C42.0638 13.02 41.5078 13.12 40.8918 13.12ZM40.8918 11.8C41.4118 11.8 41.8518 11.68 42.2118 11.44C42.5798 11.2 42.8598 10.852 43.0518 10.396C43.2518 9.94 43.3518 9.396 43.3518 8.764C43.3518 7.804 43.1358 7.06 42.7038 6.532C42.2798 6.004 41.6758 5.74 40.8918 5.74C40.3798 5.74 39.9398 5.86 39.5718 6.1C39.2038 6.332 38.9198 6.676 38.7198 7.132C38.5278 7.58 38.4318 8.124 38.4318 8.764C38.4318 9.716 38.6478 10.46 39.0798 10.996C39.5118 11.532 40.1158 11.8 40.8918 11.8ZM53.8475 13.12C52.9115 13.12 52.1195 12.944 51.4715 12.592C50.8315 12.24 50.3435 11.74 50.0075 11.092C49.6715 10.444 49.5035 9.676 49.5035 8.788C49.5035 8.116 49.5995 7.512 49.7915 6.976C49.9915 6.44 50.2755 5.984 50.6435 5.608C51.0195 5.224 51.4755 4.932 52.0115 4.732C52.5475 4.524 53.1555 4.42 53.8355 4.42C54.2835 4.42 54.7315 4.476 55.1795 4.588C55.6355 4.692 56.0635 4.872 56.4635 5.128C56.5995 5.216 56.6875 5.324 56.7275 5.452C56.7755 5.58 56.7835 5.712 56.7515 5.848C56.7195 5.976 56.6595 6.088 56.5715 6.184C56.4835 6.28 56.3715 6.34 56.2355 6.364C56.1075 6.388 55.9635 6.356 55.8035 6.268C55.4995 6.092 55.1915 5.964 54.8795 5.884C54.5675 5.804 54.2195 5.764 53.8355 5.764C53.2435 5.764 52.7435 5.884 52.3355 6.124C51.9275 6.356 51.6195 6.696 51.4115 7.144C51.2115 7.592 51.1115 8.14 51.1115 8.788C51.1115 9.772 51.3475 10.52 51.8195 11.032C52.2915 11.544 52.9915 11.8 53.9195 11.8C54.2395 11.8 54.5635 11.768 54.8915 11.704C55.2195 11.64 55.5395 11.552 55.8515 11.44L55.5515 12.124V9.568H54.2315C54.0315 9.568 53.8755 9.516 53.7635 9.412C53.6595 9.308 53.6075 9.168 53.6075 8.992C53.6075 8.808 53.6595 8.668 53.7635 8.572C53.8755 8.476 54.0315 8.428 54.2315 8.428H56.2115C56.4115 8.428 56.5635 8.484 56.6675 8.596C56.7795 8.7 56.8355 8.852 56.8355 9.052V11.968C56.8355 12.144 56.7995 12.292 56.7275 12.412C56.6635 12.532 56.5555 12.62 56.4035 12.676C56.0515 12.804 55.6475 12.912 55.1915 13C54.7355 13.08 54.2875 13.12 53.8475 13.12ZM59.3834 13.096C59.1354 13.096 58.9434 13.028 58.8074 12.892C58.6794 12.748 58.6154 12.552 58.6154 12.304V5.236C58.6154 4.98 58.6794 4.784 58.8074 4.648C58.9434 4.512 59.1354 4.444 59.3834 4.444C59.6314 4.444 59.8194 4.512 59.9474 4.648C60.0834 4.784 60.1514 4.98 60.1514 5.236V12.304C60.1514 12.552 60.0874 12.748 59.9594 12.892C59.8314 13.028 59.6394 13.096 59.3834 13.096ZM64.8101 13.096C64.5621 13.096 64.3701 13.028 64.2341 12.892C64.1061 12.748 64.0421 12.552 64.0421 12.304V5.824H61.7021C61.4941 5.824 61.3301 5.768 61.2101 5.656C61.0981 5.536 61.0421 5.376 61.0421 5.176C61.0421 4.968 61.0981 4.812 61.2101 4.708C61.3301 4.596 61.4941 4.54 61.7021 4.54H67.9181C68.1261 4.54 68.2861 4.596 68.3981 4.708C68.5181 4.812 68.5781 4.968 68.5781 5.176C68.5781 5.376 68.5181 5.536 68.3981 5.656C68.2861 5.768 68.1261 5.824 67.9181 5.824H65.5781V12.304C65.5781 12.552 65.5141 12.748 65.3861 12.892C65.2581 13.028 65.0661 13.096 64.8101 13.096ZM70.2233 13.096C69.9753 13.096 69.7833 13.028 69.6473 12.892C69.5193 12.748 69.4553 12.552 69.4553 12.304V5.236C69.4553 4.98 69.5193 4.784 69.6473 4.648C69.7833 4.512 69.9753 4.444 70.2233 4.444C70.4713 4.444 70.6593 4.512 70.7873 4.648C70.9233 4.784 70.9913 4.98 70.9913 5.236V8.068H75.3473V5.236C75.3473 4.98 75.4113 4.784 75.5393 4.648C75.6753 4.512 75.8673 4.444 76.1153 4.444C76.3633 4.444 76.5513 4.512 76.6793 4.648C76.8153 4.784 76.8833 4.98 76.8833 5.236V12.304C76.8833 12.552 76.8153 12.748 76.6793 12.892C76.5513 13.028 76.3633 13.096 76.1153 13.096C75.8673 13.096 75.6753 13.028 75.5393 12.892C75.4113 12.748 75.3473 12.552 75.3473 12.304V9.352H70.9913V12.304C70.9913 12.552 70.9273 12.748 70.7993 12.892C70.6713 13.028 70.4793 13.096 70.2233 13.096ZM82.2525 13.12C81.6685 13.12 81.1525 13.044 80.7045 12.892C80.2645 12.74 79.8925 12.516 79.5885 12.22C79.2845 11.916 79.0565 11.54 78.9045 11.092C78.7525 10.644 78.6765 10.124 78.6765 9.532V5.224C78.6765 4.96 78.7405 4.764 78.8685 4.636C79.0045 4.508 79.1965 4.444 79.4445 4.444C79.6925 4.444 79.8805 4.508 80.0085 4.636C80.1445 4.764 80.2125 4.96 80.2125 5.224V9.52C80.2125 10.28 80.3845 10.852 80.7285 11.236C81.0805 11.612 81.5885 11.8 82.2525 11.8C82.9165 11.8 83.4205 11.612 83.7645 11.236C84.1085 10.852 84.2805 10.28 84.2805 9.52V5.224C84.2805 4.96 84.3445 4.764 84.4725 4.636C84.6085 4.508 84.8005 4.444 85.0485 4.444C85.2885 4.444 85.4725 4.508 85.6005 4.636C85.7365 4.764 85.8045 4.96 85.8045 5.224V9.532C85.8045 10.316 85.6685 10.976 85.3965 11.512C85.1325 12.048 84.7365 12.452 84.2085 12.724C83.6805 12.988 83.0285 13.12 82.2525 13.12ZM88.4119 13C88.1479 13 87.9439 12.932 87.7999 12.796C87.6639 12.652 87.5959 12.448 87.5959 12.184V5.356C87.5959 5.092 87.6639 4.892 87.7999 4.756C87.9439 4.612 88.1479 4.54 88.4119 4.54H91.2919C91.8839 4.54 92.3879 4.628 92.8039 4.804C93.2199 4.98 93.5359 5.232 93.7519 5.56C93.9759 5.888 94.0879 6.28 94.0879 6.736C94.0879 7.248 93.9399 7.68 93.6439 8.032C93.3479 8.384 92.9439 8.62 92.4319 8.74V8.56C93.0239 8.648 93.4839 8.872 93.8119 9.232C94.1399 9.592 94.3039 10.06 94.3039 10.636C94.3039 11.388 94.0479 11.972 93.5359 12.388C93.0319 12.796 92.3279 13 91.4239 13H88.4119ZM89.0719 11.836H91.2319C91.7759 11.836 92.1759 11.732 92.4319 11.524C92.6879 11.308 92.8159 10.988 92.8159 10.564C92.8159 10.132 92.6879 9.812 92.4319 9.604C92.1759 9.396 91.7759 9.292 91.2319 9.292H89.0719V11.836ZM89.0719 8.128H91.0279C91.5559 8.128 91.9479 8.028 92.2039 7.828C92.4679 7.62 92.5999 7.316 92.5999 6.916C92.5999 6.516 92.4679 6.216 92.2039 6.016C91.9479 5.808 91.5559 5.704 91.0279 5.704H89.0719V8.128Z" fill="#3294F8"/>
<g clip-path="url(#clip0_406_83)">
<path d="M109.804 4.67857C109.804 4.23485 110.163 3.875 110.607 3.875H113.799C113.929 3.875 114.035 3.8966 114.128 3.93602C114.201 3.97494 114.311 4.03245 114.389 4.10854C114.389 4.10979 114.389 4.11105 114.391 4.11205C114.547 4.26825 114.602 4.47215 114.625 4.67606C114.625 4.67706 114.625 4.67782 114.625 4.67857V7.89286C114.625 8.33733 114.266 8.69643 113.821 8.69643C113.377 8.69643 113.018 8.33733 113.018 7.89286V6.6197L108.764 10.8711C108.45 11.185 107.943 11.185 107.629 10.8711C107.315 10.5572 107.315 10.0499 107.629 9.73605L111.88 5.48214H110.607C110.163 5.48214 109.804 5.12229 109.804 4.67857ZM103.375 6.28571C103.375 5.39802 104.094 4.67857 104.982 4.67857H107.393C107.837 4.67857 108.196 5.03842 108.196 5.48214C108.196 5.92662 107.837 6.28571 107.393 6.28571H104.982V13.5179H112.214V11.1071C112.214 10.6627 112.573 10.3036 113.018 10.3036C113.462 10.3036 113.821 10.6627 113.821 11.1071V13.5179C113.821 14.4043 113.101 15.125 112.214 15.125H104.982C104.094 15.125 103.375 14.4043 103.375 13.5179V6.28571Z" fill="#3294F8"/>
</g>
<defs>
<clipPath id="clip0_406_83">
<rect width="12" height="12" fill="white" transform="translate(103 3.5)"/>
</clipPath>
</defs>
</svg>
